#!OML:ASF I:\Actors\actors\Patient Classification 1\Patient 1\Session 1\Subject1.ASF
:FULLY-SPECIFIED
:DEGREES
501
root 0.73697 17.4709 9.26625 7.2801 2.43407 -8.52291
lowerback -2.89095 1.56682 4.48597
upperback -8.14386 2.29806 2.32717
thorax -6.80897 0.951939 -0.139773
lowerneck -13.8554 -0.680031 1.2999
upperneck 32.0841 -2.39061 3.14228
head 13.0752 -0.454409 0.641242
rclavicle -6.90777e-015 -1.51076e-014
rhumerus -34.7582 40.3468 -110.111
rradius 94.2813
rwrist 41.4734
rhand -33.1501 -45.2415
rfingers 7.12502
rthumb -6.35916 -75.1261
lclavicle -6.90777e-015 -1.51076e-014
lhumerus -31.9478 -10.0438 100.704
lradius 91.8855
lwrist 76.0432
lhand -17.8974 11.6669
lfingers 7.12502
lthumb 8.36932 41.4811
rfemur -2.73313 21.566 25.7666
rtibia 5.39613
rfoot -14.3058 -25.9072
rtoes 3.77014
lfemur 4.821 -40.4274 -12.2864
ltibia -4.0544
lfoot -14.2082 46.2725
ltoes 3.01559
502
root 0.736465 17.4711 9.26493 7.27802 2.3525 -8.54175
lowerback -2.88729 1.61879 4.51185
upperback -8.14284 2.36775 2.31951
thorax -6.80659 0.984693 -0.164104
lowerneck -13.9096 -0.713731 1.34023
upperneck 32.1645 -2.43103 3.06576
head 13.1197 -0.475338 0.598901
rclavicle 7.05686e-015 2.54444e-014
rhumerus -34.0971 40.3454 -109.804
rradius 94.3198
rwrist 41.4112
rhand -33.1191 -45.2495
rfingers 7.12502
rthumb -6.32921 -75.135
lclavicle 7.05686e-015 2.54444e-014
lhumerus -31.9349 -10.0253 100.751
lradius 91.8845
lwrist 76.0171
lhand -17.8964 11.5488
lfingers 7.12502
lthumb 8.37035 41.363
rfemur -2.73624 21.5837 25.7861
rtibia 5.40312
rfoot -14.2807 -25.846
rtoes 3.79879
lfemur 4.86571 -40.4065 -12.2965
ltibia -4.06874
lfoot -14.351 46.311
ltoes 3.24278
503
root 0.734903 17.4714 9.26351 7.24223 2.19974 -8.59858
lowerback -2.84577 1.68364 4.52578
upperback -8.12108 2.45793 2.34785
thorax -6.80482 1.02983 -0.1457
lowerneck -14.0132 -0.738992 1.26321
upperneck 32.2438 -2.46624 3.10663
head 13.1779 -0.492096 0.623483
rclavicle 2.03257e-014 -3.18055e-015
rhumerus -33.4428 40.5611 -109.511
rradius 94.4248
rwrist 41.3237
rhand -33.1345 -45.6034
rfingers 7.12502
rthumb -6.3441 -75.4884
lclavicle 2.03257e-014 -3.18055e-015
lhumerus -31.8752 -9.97762 100.814
lradius 91.8877
lwrist 76.0472
lhand -17.9918 11.5158
lfingers 7.12502
lthumb 8.27822 41.3336
rfemur -2.72896 21.6315 25.8624
rtibia 5.45379
rfoot -14.2085 -25.7528
rtoes 3.53729
lfemur 5.03356 -40.4625 -12.3453
ltibia -4.11562
lfoot -14.596 46.4847
ltoes 3.63396
504
root 0.735138 17.4706 9.26206 7.24738 2.12806 -8.6263
lowerback -2.86658 1.71301 4.52893
upperback -8.10246 2.49631 2.37518
thorax -6.77265 1.05052 -0.119157
lowerneck -14.0706 -0.752016 1.11022
upperneck 32.2516 -2.49652 3.26461
head 13.1988 -0.502155 0.707393
rclavicle -7.45443e-015 8.74653e-015
rhumerus -32.8268 40.9552 -109.28
rradius 94.5978
rwrist 41.2943
rhand -33.2941 -46.2216
rfingers 7.12502
rthumb -6.49814 -76.1019
lclavicle -7.45443e-015 8.74653e-015
lhumerus -31.7769 -9.89559 100.867
lradius 91.898
lwrist 76.1288
lhand -18.1848 11.6696
lfingers 7.12502
lthumb 8.09202 41.4947
rfemur -2.76462 21.663 25.8813
rtibia 5.47755
rfoot -14.1647 -25.7041
rtoes 3.37271
lfemur 5.10092 -40.5875 -12.3717
ltibia -4.1335
lfoot -14.7742 46.6577
ltoes 3.86736
505
root 0.738071 17.469 9.26001 7.2916 2.20743 -8.6151
lowerback -2.9146 1.69907 4.55861
upperback -8.11127 2.47509 2.37139
thorax -6.7542 1.03834 -0.13762
lowerneck -14.0263 -0.756448 1.00089
upperneck 32.1584 -2.51445 3.40834
head 13.1538 -0.506309 0.779091
rclavicle 3.43401e-014 5.36719e-014
rhumerus -32.2263 41.4349 -109.069
rradius 94.8139
rwrist 41.3702
rhand -33.5986 -46.679
rfingers 7.12502
rthumb -6.79205 -76.55
lclavicle 3.43401e-014 5.36719e-014
lhumerus -31.7248 -9.84846 100.894
lradius 91.9196
lwrist 76.232
lhand -18.1367 11.6535
lfingers 7.12502
lthumb 8.13842 41.4768
rfemur -2.82456 21.6253 25.8324
rtibia 5.46287
rfoot -14.2154 -25.7192
rtoes 3.64794
lfemur 4.96931 -40.6406 -12.3158
ltibia -4.08295
lfoot -14.7721 46.6332
ltoes 3.69122
506
root 0.739793 17.4681 9.25794 7.30813 2.2396 -8.58585
lowerback -2.90942 1.69659 4.53902
upperback -8.1224 2.47212 2.36297
thorax -6.76953 1.03744 -0.135725
lowerneck -13.9674 -0.75852 1.00628
upperneck 32.0698 -2.51876 3.42413
head 13.1037 -0.507688 0.782762
rclavicle -9.83984e-015 -2.18663e-014
rhumerus -31.6025 41.9595 -108.845
rradius 94.9577
rwrist 41.6585
rhand -33.9614 -46.8784
rfingers 7.12502
rthumb -7.1423 -76.7379
lclavicle -9.83984e-015 -2.18663e-014
lhumerus -31.734 -9.84694 100.913
lradius 91.9699
lwrist 76.2774
lhand -17.9148 11.4577
lfingers 7.12502
lthumb 8.35259 41.2725
rfemur -2.86224 21.5598 25.7693
rtibia 5.46627
rfoot -14.2317 -25.6788
rtoes 3.78942
lfemur 4.91601 -40.743 -12.3455
ltibia -4.02289
lfoot -14.7315 46.6993
ltoes 3.48736
507
root 0.739792 17.4687 9.2554 7.30412 2.18802 -8.57435
lowerback -2.86801 1.71458 4.51979
upperback -8.1287 2.49827 2.34737
thorax -6.79913 1.05038 -0.143369
lowerneck -13.9942 -0.757895 1.09078
upperneck 32.0804 -2.5212 3.35761
head 13.112 -0.506857 0.741704
rclavicle -2.33572e-015 -1.39149e-015
rhumerus -30.9523 42.5526 -108.674
rradius 94.9727
rwrist 42.0091
rhand -34.3295 -46.9392
rfingers 7.12502
rthumb -7.49764 -76.7863
lclavicle -2.33572e-015 -1.39149e-015
lhumerus -31.7661 -9.86958 100.904
lradius 92.0369
lwrist 76.2352
lhand -17.7802 11.2797
lfingers 7.12502
lthumb 8.48245 41.0893
rfemur -2.89324 21.5048 25.732
rtibia 5.47569
rfoot -14.1571 -25.5688
rtoes 3.57312
lfemur 4.96779 -40.9061 -12.4237
ltibia -3.99554
lfoot -14.809 46.8966
ltoes 3.69791
508
root 0.7395 17.4711 9.25258 7.3093 2.10115 -8.57416
lowerback -2.83255 1.73841 4.53002
upperback -8.14292 2.5319 2.32121
thorax -6.83223 1.06459 -0.17847
lowerneck -14.0698 -0.751352 1.13358
upperneck 32.1588 -2.52545 3.34493
head 13.1612 -0.502894 0.729336
rclavicle -1.13307e-014 -3.3197e-014
rhumerus -30.3394 43.3098 -108.594
rradius 94.8629
rwrist 42.1006
rhand -34.3832 -47.0967
rfingers 7.12502
rthumb -7.54945 -76.9419
lclavicle -1.13307e-014 -3.3197e-014
lhumerus -31.8122 -9.86772 100.866
lradius 92.0907
lwrist 76.1537
lhand -17.6891 11.2016
lfingers 7.12502
lthumb 8.5704 41.0077
rfemur -2.94163 21.4758 25.7081
rtibia 5.49393
rfoot -14.0846 -25.4509
rtoes 3.45979
lfemur 5.00102 -40.9592 -12.4587
ltibia -3.99187
lfoot -15.0512 47.0049
ltoes 4.17307
509
root 0.737602 17.4732 9.25112 7.30988 1.96252 -8.58976
lowerback -2.81663 1.77469 4.5287
upperback -8.1483 2.58087 2.30848
thorax -6.84498 1.08812 -0.19292
lowerneck -14.1137 -0.750074 1.13525
upperneck 32.2148 -2.53766 3.37336
head 13.1955 -0.502767 0.738836
rclavicle 4.96962e-015 9.74045e-015
rhumerus -29.7677 44.1337 -108.539
rradius 94.6066
rwrist 41.9102
rhand -33.8014 -47.2346
rfingers 7.12502
rthumb -6.98788 -77.0992
lclavicle 4.96962e-015 9.74045e-015
lhumerus -31.8524 -9.84184 100.834
lradius 92.1378
lwrist 76.1068
lhand -17.419 11.2588
lfingers 7.12502
lthumb 8.831 41.054
rfemur -2.98249 21.4828 25.7171
rtibia 5.54177
rfoot -14.0345 -25.3329
rtoes 3.36972
lfemur 5.07131 -40.9498 -12.4839
ltibia -4.01557
lfoot -15.305 47.1026
ltoes 4.55055
510
root 0.737734 17.4707 9.24564 7.40119 1.77457 -8.61137
lowerback -2.83452 1.85103 4.58506
upperback -8.18435 2.68193 2.26651
thorax -6.86633 1.13234 -0.27048
lowerneck -14.1168 -0.765438 1.15522
upperneck 32.2109 -2.57444 3.39777
head 13.1956 -0.513309 0.739226
rclavicle 3.926e-015 -3.77691e-014
rhumerus -29.1917 44.7721 -108.461
rradius 94.2921
rwrist 41.7342
rhand -32.1825 -47.3133
rfingers 7.12502
rthumb -5.42497 -77.2238
lclavicle 3.926e-015 -3.77691e-014
lhumerus -31.8621 -9.8716 100.802
lradius 92.1621
lwrist 76.1203
lhand -16.8499 11.3004
lfingers 7.12502
lthumb 9.38018 41.0717
rfemur -3.20688 21.3889 25.6515
rtibia 5.66212
rfoot -13.9451 -25.0676
rtoes 3.13887
lfemur 4.95602 -40.8717 -12.4057
ltibia -3.97806
lfoot -15.4648 47.1842
ltoes 4.84291
511
root 0.745743 17.462 9.2323 7.68267 1.46466 -8.57507
lowerback -2.91535 2.00812 4.71796
upperback -8.29858 2.88728 2.14464
thorax -6.92501 1.21892 -0.475216
lowerneck -14.1253 -0.794697 1.19115
upperneck 32.205 -2.63827 3.42905
head 13.1965 -0.532675 0.735386
rclavicle 1.2921e-014 -8.15017e-015
rhumerus -28.6747 45.1244 -108.404
rradius 93.9939
rwrist 41.5356
rhand -29.591 -47.7494
rfingers 7.12502
rthumb -2.92243 -77.7092
lclavicle 1.2921e-014 -8.15017e-015
lhumerus -31.8601 -9.9703 100.768
lradius 92.1498
lwrist 76.1414
lhand -16.4653 11.3221
lfingers 7.12502
lthumb 9.75123 41.0764
rfemur -3.81084 21.0153 25.3315
rtibia 5.90649
rfoot -13.7121 -24.4274
rtoes 2.57895
lfemur 4.52259 -40.7687 -12.2751
ltibia -3.82338
lfoot -15.706 47.3292
ltoes 5.21963
512
root 0.735699 17.4699 9.24271 7.32551 1.62307 -8.387
lowerback -2.76027 1.95947 4.39915
upperback -8.17382 2.81874 2.08023
thorax -6.88902 1.20466 -0.368362
lowerneck -14.1732 -0.835758 1.19287
upperneck 32.2125 -2.7252 3.50123
head 13.2135 -0.560087 0.750062
rclavicle 3.08116e-015 3.97569e-016
rhumerus -28.2035 45.2197 -108.315
rradius 93.6308
rwrist 41.0592
rhand -27.9197 -47.9391
rfingers 7.12502
rthumb -1.30835 -77.9148
lclavicle 3.08116e-015 3.97569e-016
lhumerus -31.8118 -10.0763 100.763
lradius 92.1082
lwrist 76.1155
lhand -16.7834 11.5159
lfingers 7.12502
lthumb 9.44434 41.2843
rfemur -3.10446 21.2773 25.4093
rtibia 5.5993
rfoot -13.818 -24.8602
rtoes 3.02728
lfemur 5.11658 -40.7332 -12.8012
ltibia -3.94255
lfoot -15.387 47.1421
ltoes 4.68868
513
root 0.732001 17.4705 9.24859 7.17332 1.63718 -8.28961
lowerback -2.72965 1.97711 4.24395
upperback -8.10451 2.83647 2.03719
thorax -6.83399 1.22338 -0.328115
lowerneck -14.2489 -0.883975 1.11037
upperneck 32.2247 -2.81532 3.62061
head 13.2405 -0.592453 0.797414
rclavicle -4.67144e-015 7.95139e-015
rhumerus -27.8127 45.111 -108.171
rradius 93.2893
rwrist 40.5371
rhand -28.269 -47.6451
rfingers 7.12502
rthumb -1.6457 -77.6185
lclavicle -4.67144e-015 7.95139e-015
lhumerus -31.7001 -10.1446 100.797
lradius 92.0351
lwrist 76.1024
lhand -17.4688 11.7279
lfingers 7.12502
lthumb 8.78293 41.5251
rfemur -2.81277 21.3236 25.4067
rtibia 5.48665
rfoot -13.9214 -24.9231
rtoes 3.39349
lfemur 5.48686 -40.9081 -13.1571
ltibia -4.00786
lfoot -15.4812 47.2957
ltoes 4.72403
514
root 0.731358 17.4694 9.24834 7.14984 1.63561 -8.32609
lowerback -2.71163 2.02341 4.26337
upperback -8.09353 2.89897 2.0257
thorax -6.82895 1.25303 -0.353133
lowerneck -14.3089 -0.929059 1.06349
upperneck 32.215 -2.88418 3.66552
head 13.2523 -0.621652 0.812361
rclavicle -1.90336e-014 -3.85642e-014
rhumerus -27.6159 44.8601 -108.043
rradius 93.1493
rwrist 40.2475
rhand -29.5634 -47.6845
rfingers 7.12502
rthumb -2.8958 -77.6446
lclavicle -1.90336e-014 -3.85642e-014
lhumerus -31.6183 -10.2156 100.853
lradius 91.9746
lwrist 76.1547
lhand -17.4919 11.6331
lfingers 7.12502
lthumb 8.76072 41.4313
rfemur -2.77878 21.3208 25.4625
rtibia 5.47731
rfoot -13.9556 -24.9169
rtoes 3.48302
lfemur 5.61402 -41.1873 -13.2296
ltibia -4.01007
lfoot -15.7493 47.5507
ltoes 4.98591
